<svg xmlns="http://www.w3.org/2000/svg"
  xmlns:xlink="http://www.w3.org/1999/xlink" aria-hidden="true" role="img" class="iconify iconify--logos" width="24" height="24" preserveAspectRatio="xMidYMid meet" viewBox="0 -960 960 960">
  <defs>
    <linearGradient id="IconifyId1813088fe1fbc01fb467" x1="43.376%" x2="50.316%" y1="2.242%" y2="89.03%">
      <stop offset="0%" stop-color="#E96F83"></stop>
      <stop offset="8.333%" stop-color="#E44C65"></stop>
      <stop offset="100%" stop-color="#9F3546"></stop>
    </linearGradient>
  </defs>
  <path fill="url(#IconifyId1813088fe1fbc01fb467)" d="M160-120v-200q0-33 23.5-56.5T240-400h480q33 0 56.5 23.5T800-320v200H160Zm200-320q-83 0-141.5-58.5T160-640q0-83 58.5-141.5T360-840h240q83 0 141.5 58.5T800-640q0 83-58.5 141.5T600-440H360ZM240-200h480v-120H240v120Zm120-320h240q50 0 85-35t35-85q0-50-35-85t-85-35H360q-50 0-85 35t-35 85q0 50 35 85t85 35Zm0-80q17 0 28.5-11.5T400-640q0-17-11.5-28.5T360-680q-17 0-28.5 11.5T320-640q0 17 11.5 28.5T360-600Zm240 0q17 0 28.5-11.5T640-640q0-17-11.5-28.5T600-680q-17 0-28.5 11.5T560-640q0 17 11.5 28.5T600-600ZM480-200Zm0-440Z"/>
</svg>
